<svg width="21" height="17" viewBox="0 0 21 17" fill="none" xmlns="http://www.w3.org/2000/svg">
<path d="M16 13.2826C14.9 13.2826 14.01 14.0298 14.01 14.943C14.01 15.8561 14.9 16.6033 16 16.6033C17.1 16.6033 18 15.8561 18 14.943C18 14.0298 17.1 13.2826 16 13.2826ZM6 13.2826C4.9 13.2826 4.01 14.0298 4.01 14.943C4.01 15.8561 4.9 16.6033 6 16.6033C7.1 16.6033 8 15.8561 8 14.943C8 14.0298 7.1 13.2826 6 13.2826ZM6 10.7921L7.1 9.13181H14.55C15.3 9.13181 15.96 8.79145 16.3 8.27674L20.7 1.66033H4.21L3.27 0H0V1.66033H2L5.6 7.96128L2.62 12.4525H18V10.7921H6Z" fill="white"/>
</svg>
