<svg width="21" height="17" viewBox="0 0 21 17" fill="none" xmlns="http://www.w3.org/2000/svg">
<path d="M16.2319 13.6C15.1159 13.6 14.213 14.365 14.213 15.3C14.213 16.235 15.1159 17 16.2319 17C17.3478 17 18.2609 16.235 18.2609 15.3C18.2609 14.365 17.3478 13.6 16.2319 13.6ZM6.08696 13.6C4.97101 13.6 4.06812 14.365 4.06812 15.3C4.06812 16.235 4.97101 17 6.08696 17C7.2029 17 8.11594 16.235 8.11594 15.3C8.11594 14.365 7.2029 13.6 6.08696 13.6ZM6.08696 11.05L7.2029 9.35H14.7609C15.5217 9.35 16.1913 9.0015 16.5362 8.4745L21 1.7H4.27101L3.31739 0H0V1.7H2.02899L5.68116 8.1515L2.65797 12.75H18.2609V11.05H6.08696Z" fill="white"/>
</svg>
